<svg data-v-0dd9719b="" version="1.0" xmlns="http://www.w3.org/2000/svg" xmlns:xlink="http://www.w3.org/1999/xlink" width="100%" height="100%" viewBox="0 0 340.000000 250.000000" preserveAspectRatio="xMidYMid meet" color-interpolation-filters="sRGB" style="margin: auto;"> <rect data-v-0dd9719b="" x="0" y="0" width="100%" height="100%" fill="#fff" fill-opacity="1" class="background"></rect> <rect data-v-0dd9719b="" x="0" y="0" width="100%" height="100%" fill="url(#watermark)" fill-opacity="1" class="watermarklayer"></rect> <g data-v-0dd9719b="" fill="#b6b85a" class="icon-text-wrapper icon-svg-group iconsvg" transform="translate(47.724998474121094,94.06291389465332)"><g class="iconsvg-imagesvg" transform="translate(0,0)"><g><rect fill="#b6b85a" fill-opacity="0" stroke-width="2" x="0" y="0" width="60" height="61.8741685658599" class="image-rect"></rect> <svg x="0" y="0" width="60" height="61.8741685658599" filtersec="colorsb814520861" class="image-svg-svg primary" style="overflow: visible;"><svg xmlns="http://www.w3.org/2000/svg" viewBox="0 0 54.11000061035156 55.79999923706055"><g><g><path fill="#7f823b" d="M20.46 0v55.8h18.08V18.96h15.57V0H20.46z"></path><path fill="#b6b85a" d="M5.33 0h2.03v18.96H5.33zM2.3 0h2.03v18.96H2.3zM17.44 0h2.03v55.8h-2.03zM8.36 0h2.03v18.96H8.36zM14.41 18.96h1.16V55.8h.87V0h-2.03v18.96zM11.38 0h2.03v18.96h-2.03zM0 0h1.3v18.96H0z"></path></g></g></svg></svg> <!----></g></g> <g transform="translate(67,6.830835342407227)"><g data-gra="path-name" fill-rule="" class="tp-name iconsvg-namesvg" transform="translate(0,0)"><g transform="scale(1)"><g><path d="M2.02-24.91L2.02-27.94 31.54-27.94 31.54-24.91 19.87-24.91 19.87-16.56 33.55-16.56 33.55-13.54 17.14-13.54Q16.85-13.25 11.66-4.61L11.66-4.61Q11.38-4.18 6.05 4.46L6.05 4.46 6.05 4.46 0 4.46Q10.37-12.53 10.66-12.96L10.66-12.96Q10.66-12.96 11.09-13.54L11.09-13.54 0-13.54 0-16.56 13.68-16.56 13.68-24.91 2.02-24.91ZM26.5 2.88L17.14-12.53 23.18-12.53Q23.47-12.1 33.55 4.46L33.55 4.46 27.5 4.46Q27.5 4.46 26.5 2.88L26.5 2.88ZM53.86-27.22L53.86-28.8 59.9-28.8 59.9-27.22 65.38-27.22Q66.67-27.22 67.68-26.06L67.68-26.06Q68.11-25.2 68.11-24.48L68.11-24.48 68.11-20.59 69.55-20.59 69.55-17.71 68.11-17.71 68.11-11.09 59.9-11.09 59.9-8.06 68.26-8.06Q68.26-8.06 68.26-8.06L68.26-8.06 68.26-5.18Q68.26-5.04 68.26-5.04L68.26-5.04 59.9-5.04 59.9-2.3 69.12-2.3Q69.12-2.3 69.12-2.3L69.12-2.3 69.12 0.72Q69.12 0.72 69.12 0.72L69.12 0.72 59.9 0.72 59.9 4.46 53.86 4.46 53.86 0.72 44.64 0.72 44.64-2.3 53.86-2.3 53.86-5.04 45.65-5.04Q45.65-5.04 45.65-5.18L45.65-5.18 45.65-8.06Q45.65-8.06 45.65-8.06L45.65-8.06 53.86-8.06 53.86-11.09 46.51-11.09 46.51-14.11 53.86-14.11 53.86-17.71 45.07-17.71 45.07-20.59 53.86-20.59 53.86-24.34 46.51-24.34 46.51-27.22 53.86-27.22ZM36-28.37L36-28.37 41.47-28.37Q41.47-28.37 41.76-27.5L41.76-27.5Q44.35-21.17 44.5-20.88L44.5-20.88 44.5-20.88 39.02-20.88Q39.02-20.88 38.16-22.9L38.16-22.9Q38.16-23.04 36-28.37ZM61.34-24.34L59.9-24.34 59.9-20.59 62.78-20.59Q62.78-20.59 62.78-20.74L62.78-20.74 62.78-22.75Q62.78-23.9 61.63-24.34L61.63-24.34Q61.49-24.34 61.34-24.34L61.34-24.34ZM36-19.44L36-19.44 41.47-19.44Q41.47-19.3 41.76-18.43L41.76-18.43Q44.21-12.53 44.5-11.81L44.5-11.81 44.5-11.81 39.02-11.81Q39.02-11.95 38.02-14.4L38.02-14.4Q37.73-14.98 36-19.44ZM62.78-17.71L59.9-17.71 59.9-14.11 62.78-14.11Q62.78-14.11 62.78-14.11L62.78-14.11 62.78-17.71ZM39.02-10.37L39.02-10.37 44.5-10.37Q41.62 3.46 41.47 4.46L41.47 4.46 36 4.46Q38.88-9.5 39.02-10.37ZM78.05-26.78L76.9-28.8 82.94-28.8Q84.1-26.78 84.1-26.78L84.1-26.78 88.99-26.78Q88.99-26.78 88.99-26.78L88.99-26.78 88.99-23.76Q88.99-23.76 88.99-23.76L88.99-23.76 87.98-23.76 87.12-19.01 89.42-19.01 89.42-16.13Q89.42-16.13 89.42-16.13L89.42-16.13 72-16.13 72-19.01 74.3-19.01 74.3-19.01Q74.16-19.73 73.44-23.76L73.44-23.76 72.43-23.76Q72.43-23.76 72.43-23.76L72.43-23.76 72.43-26.78 78.05-26.78ZM104.98-28.8L104.98-28.8 104.98-25.78Q96.34-25.2 96.19-25.2L96.19-25.2 96.19-8.21Q96.19-5.9 95.62-0.58L95.62-0.58Q95.18 2.59 94.75 4.46L94.75 4.46 89.71 4.46Q90.14 2.74 90.58 0.72L90.58 0.72Q90.86-1.15 91.01-4.61L91.01-4.61Q91.15-7.34 91.15-7.78L91.15-7.78 91.15-27.79Q104.69-28.8 104.98-28.8ZM82.66-23.76L78.77-23.76 79.63-19.01 81.79-19.01 82.66-23.76ZM97.2-15.26L97.2-18.29 105.55-18.29 105.55-15.26 103.39-15.26 103.39 4.46 98.35 4.46 98.35-15.26 97.2-15.26ZM78.19-12.1L78.19-14.98 83.23-14.98 83.23-12.1 89.14-12.1 89.14-9.07 83.23-9.07 83.23 4.46 78.19 4.46 78.19-9.07 72.43-9.07 72.43-12.1Q72.43-12.1 72.43-12.1L72.43-12.1 78.19-12.1ZM72 4.46L73.3-7.2 77.33-7.2Q76.03 4.03 75.89 4.46L75.89 4.46 72 4.46ZM84.24-7.2L84.24-7.2 88.13-7.2 88.13-7.2Q88.13-6.77 89.42 4.46L89.42 4.46 85.54 4.46Q84.24-6.34 84.24-7.2ZM108-12.1L112.61-28.8 118.66-28.8Q117.07-22.9 117.07-22.75L117.07-22.75 117.07 4.46 111.02 4.46 111.02-12.1 108-12.1ZM124.42-28.8L124.42-28.8 130.46-28.8Q130.46-28.66 129.02-21.74L129.02-21.74 141.55-21.74 141.55-18.72 128.45-18.72Q128.45-18.72 128.16-17.57L128.16-17.57Q126.29-7.92 123.98 3.89L123.98 3.89Q123.84 3.89 123.84 4.46L123.84 4.46 117.79 4.46Q121.54-14.4 122.26-18L122.26-18Q122.4-18.72 122.4-18.72L122.4-18.72 118.08-18.72 118.08-21.74 122.98-21.74Q124.42-28.66 124.42-28.8ZM133.49-22.61L132.34-27.94 138.53-27.94Q139.39-23.76 139.54-22.61L139.54-22.61 133.49-22.61ZM130.18 1.44L130.18-17.71 136.22-17.71 136.22 0Q136.22 1.15 137.23 1.44L137.23 1.44Q137.52 1.58 137.66 1.58L137.66 1.58 141.55 1.58 141.55 4.46 132.91 4.46Q131.47 4.46 130.61 3.17L130.61 3.17Q130.18 2.45 130.18 1.44L130.18 1.44ZM168.91-8.35L168.91-28.8 174.24-28.8 174.24-8.93 177.55-9.22 177.55-6.19Q174.38-5.9 174.24-5.9L174.24-5.9 174.24 4.46 168.91 4.46 168.91-5.47 159.12-4.46 159.12-7.49Q168.77-8.35 168.91-8.35L168.91-8.35ZM157.97-28.51L157.97-28.51 157.97-25.49 144.86-24.62 144.86-27.5Q157.68-28.51 157.97-28.51L157.97-28.51Q157.97-28.51 157.97-28.51ZM160.56-27.65L160.56-27.65 165.46-27.65Q165.6-27.65 165.74-26.64L165.74-26.64Q166.03-25.49 167.62-19.15L167.62-19.15 162.58-19.15Q160.56-27.07 160.56-27.65ZM149.33-23.9L153.5-24.19 153.5-20.74 158.69-20.74Q158.69-20.74 158.69-20.74L158.69-20.74 158.69-17.86Q158.69-17.71 158.69-17.71L158.69-17.71 153.5-17.71 153.5 4.46 149.33 4.46 149.33-17.71 144.14-17.71 144.14-20.74 149.33-20.74 149.33-23.76Q149.33-23.9 149.33-23.9L149.33-23.9ZM159.84-18.43L159.84-18.43 164.74-18.43Q166.9-10.08 166.9-9.94L166.9-9.94 161.86-9.94Q161.86-9.94 161.57-10.94L161.57-10.94 159.84-18.43ZM145.44-15.55L145.44-15.55 148.61-15.55Q147.31 1.58 147.17 3.31L147.17 3.31 144 3.31Q145.44-15.55 145.44-15.55ZM154.22-15.55L154.22-15.55 157.39-15.55Q158.69 2.16 158.83 3.31L158.83 3.31 158.83 3.31 155.66 3.31Q155.52 3.31 155.52 3.31L155.52 3.31Q154.22-15.41 154.22-15.55Z" transform="translate(0, 28.799999237060547)"></path></g> <!----> <!----> <!----> <!----> <!----> <!----> <!----></g></g> <g data-gra="path-slogan" fill-rule="" class="tp-slogan iconsvg-slogansvg" fill="#b6b85a" transform="translate(34.05000305175781,39.2599983215332)"><!----> <!----> <g transform="scale(1, 1)"><g transform="scale(1)"><path d="M3.09-7.59L0.19-7.59L0.19-8.58L7.13-8.58L7.13-7.59L4.22-7.59L4.22 0L3.09 0L3.09-7.59ZM8.34-8.58L9.52-8.58L9.52 0L8.34 0L8.34-8.58ZM17.16 0L16.31-2.48L12.84-2.48L11.95 0L10.78 0L14.02-8.58L15.33-8.58L18.42 0L17.16 0ZM14.58-7.31L13.22-3.52L15.89-3.52L14.63-7.31L14.58-7.31ZM20.86-8.58L25.17-1.64L25.17-8.58L26.30-8.58L26.30 0L24.98 0L20.63-6.94L20.58-6.94L20.58 0L19.45 0L19.45-8.58L20.86-8.58ZM27.38-1.92L27.38-2.77L28.45-2.77L28.45-2.16Q28.45-0.75 29.77-0.75L29.77-0.75Q31.13-0.75 31.13-2.25L31.13-2.25L31.13-8.58L32.30-8.58L32.30-2.30Q32.25 0.09 29.81 0.14L29.81 0.14Q27.52 0.09 27.38-1.92L27.38-1.92ZM34.27-8.58L35.44-8.58L35.44 0L34.27 0L34.27-8.58ZM38.81-8.58L43.13-1.64L43.13-8.58L44.25-8.58L44.25 0L42.94 0L38.58-6.94L38.53-6.94L38.53 0L37.41 0L37.41-8.58L38.81-8.58ZM56.11-8.58L53.20-4.41L56.25 0L54.80 0L52.45-3.52L50.11 0L48.70 0L51.80-4.41L48.89-8.58L50.34-8.58L52.50-5.30L54.70-8.58L56.11-8.58ZM57.52-8.58L58.69-8.58L58.69 0L57.52 0L57.52-8.58ZM62.06-8.58L66.38-1.64L66.38-8.58L67.50-8.58L67.50 0L66.19 0L61.83-6.94L61.78-6.94L61.78 0L60.66 0L60.66-8.58L62.06-8.58ZM76.22-8.58L72.98-3.47L72.98 0L71.81 0L71.81-3.47L68.58-8.58L69.94-8.58L72.38-4.45L74.86-8.58L76.22-8.58ZM84.05-4.27L84.05-4.27Q83.86-7.64 81.05-7.83L81.05-7.83Q78.19-7.69 78.05-4.27L78.05-4.27Q78.19-0.94 81.05-0.80L81.05-0.80Q83.86-0.98 84.05-4.27ZM85.22-4.27L85.22-4.27Q84.94 0 81.05 0.14L81.05 0.14Q77.11 0 76.83-4.27L76.83-4.27Q77.06-8.72 81.05-8.81L81.05-8.81Q84.94-8.67 85.22-4.27ZM92.25-3.19L92.25-8.58L93.42-8.58L93.42-3.05Q93.28 0.05 89.91 0.14L89.91 0.14Q86.77 0.05 86.63-2.86L86.63-2.86L86.63-8.58L87.80-8.58L87.80-3.19Q87.84-0.84 89.95-0.80L89.95-0.80Q92.25-0.84 92.25-3.19L92.25-3.19ZM97.73-4.31L96.38-3.05L96.38 0L95.20 0L95.20-8.58L96.38-8.58L96.38-4.41L100.55-8.58L102.19-8.58L98.58-5.11L102.28 0L100.73 0L97.73-4.31ZM104.48-1.03L109.64-1.03L109.64 0L103.31 0L103.31-8.58L109.55-8.58L109.55-7.59L104.48-7.59L104.48-4.92L109.17-4.92L109.17-3.89L104.48-3.89L104.48-1.03Z" transform="translate(-0.1875, 8.8125)"></path></g></g></g></g></g><defs v-gra="od"></defs></svg>